<svg width="1440" height="900" viewBox="0 0 1440 900" fill="none" xmlns="http://www.w3.org/2000/svg">
  <defs>
    <linearGradient id="bg" x1="64" y1="48" x2="1380" y2="856" gradientUnits="userSpaceOnUse">
      <stop stop-color="#091B2A"/>
      <stop offset="0.52" stop-color="#113248"/>
      <stop offset="1" stop-color="#134E4A"/>
    </linearGradient>
    <linearGradient id="panel" x1="0" y1="0" x2="420" y2="220" gradientUnits="userSpaceOnUse">
      <stop stop-color="#0D2233"/>
      <stop offset="1" stop-color="#112B3E"/>
    </linearGradient>
    <linearGradient id="accent" x1="0" y1="0" x2="1" y2="1">
      <stop stop-color="#86EFAC"/>
      <stop offset="1" stop-color="#67E8F9"/>
    </linearGradient>
  </defs>

  <rect width="1440" height="900" rx="26" fill="url(#bg)"/>
  <rect x="36" y="32" width="1368" height="836" rx="28" fill="#08121C" fill-opacity="0.35" stroke="rgba(255,255,255,0.12)"/>

  <text x="92" y="112" fill="#8BF2CB" font-family="Segoe UI, Arial, sans-serif" font-size="20" font-weight="700">Promptfoo Adjacent Control Plane</text>
  <text x="92" y="168" fill="white" font-family="Segoe UI, Arial, sans-serif" font-size="44" font-weight="700">TraceEval dashboard preview</text>
  <text x="92" y="214" fill="#C6DAE4" font-family="Segoe UI, Arial, sans-serif" font-size="22">Ingest, cluster, review, replay, attribute, and export evals from real production failures.</text>

  <g>
    <rect x="92" y="268" width="148" height="88" rx="18" fill="url(#panel)" stroke="rgba(255,255,255,0.08)"/>
    <rect x="258" y="268" width="148" height="88" rx="18" fill="url(#panel)" stroke="rgba(255,255,255,0.08)"/>
    <rect x="424" y="268" width="148" height="88" rx="18" fill="url(#panel)" stroke="rgba(255,255,255,0.08)"/>
    <rect x="590" y="268" width="148" height="88" rx="18" fill="url(#panel)" stroke="rgba(255,255,255,0.08)"/>
    <rect x="756" y="268" width="148" height="88" rx="18" fill="url(#panel)" stroke="rgba(255,255,255,0.08)"/>
    <rect x="922" y="268" width="148" height="88" rx="18" fill="url(#panel)" stroke="rgba(255,255,255,0.08)"/>
  </g>

  <g fill="#D9E8EF" font-family="Segoe UI, Arial, sans-serif">
    <text x="116" y="300" font-size="15">Replay runs</text>
    <text x="284" y="300" font-size="15">Improved</text>
    <text x="450" y="300" font-size="15">Regressed</text>
    <text x="614" y="300" font-size="15">Review queue</text>
    <text x="782" y="300" font-size="15">Export-ready</text>
    <text x="946" y="300" font-size="15">Coverage</text>
    <text x="138" y="338" font-size="30" font-weight="700">9</text>
    <text x="308" y="338" font-size="30" font-weight="700">4</text>
    <text x="470" y="338" font-size="30" font-weight="700">2</text>
    <text x="650" y="338" font-size="30" font-weight="700">3</text>
    <text x="814" y="338" font-size="30" font-weight="700">5</text>
    <text x="970" y="338" font-size="30" font-weight="700">75%</text>
  </g>

  <g>
    <rect x="92" y="396" width="610" height="200" rx="22" fill="url(#panel)" stroke="rgba(255,255,255,0.08)"/>
    <rect x="726" y="396" width="622" height="200" rx="22" fill="url(#panel)" stroke="rgba(255,255,255,0.08)"/>
    <rect x="92" y="622" width="860" height="196" rx="22" fill="url(#panel)" stroke="rgba(255,255,255,0.08)"/>
    <rect x="976" y="622" width="372" height="196" rx="22" fill="url(#panel)" stroke="rgba(255,255,255,0.08)"/>
  </g>

  <g fill="white" font-family="Segoe UI, Arial, sans-serif">
    <text x="120" y="434" font-size="24" font-weight="700">Release versions</text>
    <text x="754" y="434" font-size="24" font-weight="700">Recent replay results</text>
    <text x="120" y="660" font-size="24" font-weight="700">Failure clusters</text>
    <text x="1004" y="660" font-size="24" font-weight="700">Promptfoo export</text>
  </g>

  <g fill="#C2D7E2" font-family="Segoe UI, Arial, sans-serif" font-size="16">
    <text x="120" y="470">baseline-2026-03-01</text>
    <text x="120" y="500">candidate-2026-03-10</text>
    <text x="120" y="530">prod-hotfix-2026-03-10</text>

    <text x="754" y="470">Refund policy drift</text>
    <text x="754" y="500">SQL tool retry loop</text>
    <text x="754" y="530">Escalation route improved</text>
  </g>

  <g>
    <rect x="530" y="454" width="138" height="28" rx="14" fill="#11374B"/>
    <rect x="1130" y="454" width="110" height="28" rx="14" fill="#3F1D23"/>
    <rect x="1130" y="484" width="110" height="28" rx="14" fill="#3F1D23"/>
    <rect x="1130" y="514" width="110" height="28" rx="14" fill="#173B36"/>
    <text x="558" y="473" fill="#98F5CF" font-family="Segoe UI, Arial, sans-serif" font-size="14" font-weight="700">candidate</text>
    <text x="1161" y="473" fill="#F9B2B2" font-family="Segoe UI, Arial, sans-serif" font-size="14" font-weight="700">regressed</text>
    <text x="1161" y="503" fill="#F9B2B2" font-family="Segoe UI, Arial, sans-serif" font-size="14" font-weight="700">regressed</text>
    <text x="1165" y="533" fill="#9AF1C5" font-family="Segoe UI, Arial, sans-serif" font-size="14" font-weight="700">improved</text>
  </g>

  <g fill="#C2D7E2" font-family="Segoe UI, Arial, sans-serif" font-size="16">
    <text x="120" y="700">Hallucinated refund exception</text>
    <text x="120" y="730">Missing human handoff on fraud</text>
    <text x="120" y="760">Retry storm against billing tool</text>
  </g>

  <g>
    <rect x="700" y="684" width="116" height="28" rx="14" fill="#3F1D23"/>
    <rect x="700" y="714" width="116" height="28" rx="14" fill="#2E3440"/>
    <rect x="700" y="744" width="116" height="28" rx="14" fill="#3B2F14"/>
    <text x="728" y="703" fill="#F9B2B2" font-family="Segoe UI, Arial, sans-serif" font-size="14" font-weight="700">critical</text>
    <text x="734" y="733" fill="#D9E8EF" font-family="Segoe UI, Arial, sans-serif" font-size="14" font-weight="700">medium</text>
    <text x="744" y="763" fill="#F7D28A" font-family="Segoe UI, Arial, sans-serif" font-size="14" font-weight="700">high</text>
  </g>

  <g fill="#D9E8EF" font-family="Consolas, monospace" font-size="14">
    <text x="1004" y="700">prompts:</text>
    <text x="1004" y="728">  - file://prompts/customer-support.txt</text>
    <text x="1004" y="756">tests:</text>
    <text x="1004" y="784">  - vars: { case_id: "case-102" }</text>
  </g>

  <path d="M1006 170H1290" stroke="url(#accent)" stroke-width="6" stroke-linecap="round"/>
</svg>
